<?xml version="1.0" encoding="utf-8"?>
<!-- Generator: Adobe Illustrator 25.3.1, SVG Export Plug-In . SVG Version: 6.00 Build 0)  -->
<svg version="1.1" id="Layer_1" xmlns="http://www.w3.org/2000/svg" xmlns:xlink="http://www.w3.org/1999/xlink" x="0px" y="0px"
	 viewBox="0 0 105 105" style="enable-background:new 0 0 105 105;" xml:space="preserve">
<style type="text/css">
	.st0{fill:none;stroke:#2E1A47;stroke-width:2;stroke-linecap:round;stroke-miterlimit:10;}
</style>
<g id="icon-savings-opt-1" transform="translate(30.739 30.377)">
	<path id="Path" class="st0" d="M32.7-25.8C5.9-32.1-20.9-15.4-27.2,11.4S-16.8,65,10,71.3s53.7-10.4,59.9-37.2
		c5.3-22.8-6-46.3-27.2-56.4"/>
	<g id="_">
		<path id="Path_5" class="st0" d="M32.3,12.5c0,0-1.1-7.4-10.9-7.8c-9.8-0.4-11,7.8-11,7.8s0,7.6,10.9,8.9s11.7,7.7,11.7,7.7
			c0,4.4-2.6,8.4-6.8,10C19.2,42.1,8.6,38,9.5,29.7"/>
		<path id="Path_6" class="st0" d="M21.7-0.5v5"/>
		<path id="Path_6_Copy" class="st0" d="M21.7,41v5"/>
	</g>
</g>
</svg>
