<?xml version="1.0" encoding="utf-8"?>
<!-- Generator: Adobe Illustrator 25.3.1, SVG Export Plug-In . SVG Version: 6.00 Build 0)  -->
<svg version="1.1" id="Layer_1" xmlns="http://www.w3.org/2000/svg" xmlns:xlink="http://www.w3.org/1999/xlink" x="0px" y="0px"
	 viewBox="0 0 65 65" style="enable-background:new 0 0 65 65;" xml:space="preserve">
<style type="text/css">
	.st0{fill:none;stroke:#2E1A47;stroke-width:2;stroke-linecap:round;stroke-linejoin:bevel;}
	.st1{fill:none;stroke:#2E1A47;stroke-width:2;stroke-linecap:round;stroke-miterlimit:10;}
	.st2{fill:none;stroke:#2E1A47;stroke-width:2;stroke-linecap:round;}
</style>
<g id="Group_17138" transform="translate(-6643 -2618)">
	<g id="Group_16278" transform="translate(6644 2619)">
		<g id="Group_16278-2" transform="translate(0 0)">
			<path id="Path_11985" class="st0" d="M55.4,21.2c-2.2,0-4-1.8-4.1-4c0-0.4,0.1-0.7,0.2-1.1H12.9c0.1,0.4,0.2,0.7,0.2,1.1
				c0,2.1-1.6,3.8-3.7,4V44c1.7,0.5,2.9,2.1,2.9,3.9c0,0.1,0,0.2,0,0.4h39.2c-0.1-0.4-0.2-0.7-0.2-1.1c0-2.2,1.8-4,4.1-4
				c0.1,0,0.2,0,0.4,0V21.1C55.7,21.2,55.5,21.2,55.4,21.2z"/>
			<path id="Path_11985-2" class="st0" d="M60.8,15.9v-2.3c0-0.9-0.7-1.6-1.6-1.6c0,0,0,0,0,0h-53c-0.9,0-1.6,0.7-1.6,1.6
				c0,0,0,0,0,0v38c0,0.9,0.7,1.6,1.6,1.6l0,0h53c0.9,0,1.6-0.7,1.6-1.6l0,0V19.8"/>
		</g>
		<g id="Group_18" transform="translate(12.338 13.143)">
			<path id="Path_33" class="st1" d="M11.5,15.9c-0.2-1.5-1.3-2.3-3.3-2.3s-3.1,0.7-3.3,2.3c0,1.5,1.1,2.4,3.3,2.7s3.4,1,3.5,2.3
				c0.1,1.4-0.7,2.6-2,3c-2.1,0.9-5.3-0.3-5.1-2.9"/>
			<line id="Line_11-2" class="st1" x1="8.3" y1="12" x2="8.3" y2="13.5"/>
			<line id="Line_12-2" class="st1" x1="8.3" y1="24.5" x2="8.3" y2="26"/>
		</g>
		<line id="Line_2513" class="st2" x1="33.8" y1="26.3" x2="45.9" y2="26.3"/>
		<line id="Line_2514" class="st2" x1="33.8" y1="31" x2="45.9" y2="31"/>
		<line id="Line_2515" class="st2" x1="33.8" y1="35.8" x2="45.9" y2="35.8"/>
	</g>
</g>
</svg>
