<?xml version="1.0" encoding="utf-8"?>
<!-- Generator: Adobe Illustrator 25.3.1, SVG Export Plug-In . SVG Version: 6.00 Build 0)  -->
<svg version="1.1" id="Layer_1" xmlns="http://www.w3.org/2000/svg" xmlns:xlink="http://www.w3.org/1999/xlink" x="0px" y="0px"
	 viewBox="0 0 105 105" style="enable-background:new 0 0 105 105;" xml:space="preserve">
<style type="text/css">
	.st0{fill:none;stroke:#2E1A47;stroke-width:2;}
	.st1{fill:none;stroke:#2E1A47;stroke-width:2;stroke-linecap:round;}
</style>
<g id="dimension" transform="translate(-3.934 -5.857)">
	<g id="Group_17194" transform="translate(4.934 6.857)">
		<path id="Path_12094" class="st0" d="M63.1,62.1V26.3c0-2-0.1-2.1-2.1-2.1H39.8c-1.9,0-2.1,0.2-2.1,2.1v71.5c0,2,0.2,2.2,2.3,2.2
			h20.8c2.1,0,2.3-0.2,2.3-2.2L63.1,62.1L63.1,62.1z"/>
		<path id="Path_12096" class="st1" d="M98.8,25.9v71.3c0,2.6-0.2,2.9-2.3,2.9H75.7c-2.1,0-2.3-0.3-2.3-2.9V6.7
			c0-2.5,0.2-2.7,2.1-2.7h21.2c1.9,0,2.1,0.2,2.1,2.7v7"/>
		<path id="Path_12097" class="st0" d="M27.8,74.3v23.6c0,2-0.2,2.2-2.2,2.2H6.8c-2.1,0.3-4-1.1-4.4-3.2c0,0,0,0,0,0l0,0
			c-0.1-0.4-0.1-0.8,0-1.2V50.5c0-1.8,0.2-2,2.1-2h21.4c1.8,0,2,0.2,2,2C27.8,58.4,27.8,66.3,27.8,74.3z"/>
	</g>
</g>
</svg>
