
<svg class="education-icon-65" xmlns="http://www.w3.org/2000/svg" xmlns:xlink="http://www.w3.org/1999/xlink" width="70" height="65" x="0px" y="0px"
	 viewBox="0 0 65 65">
<style type="text/css">
	.st0{fill:none;stroke:#2E1A47;stroke-width:2;stroke-linecap:round;stroke-miterlimit:10;}
</style>
<g id="Group_16735" transform="translate(-81.862 -95.494)">
	<path id="Path_11994" class="st0" d="M147.1,132v-10.4c0-0.7-0.5-1.3-1.2-1.5l-31.8-10.7c-0.8-0.3-1.7-0.3-2.6,0l-28.9,10.3
		c-0.4,0.1-0.7,0.6-0.6,1c0.1,0.3,0.3,0.5,0.6,0.6l29,8.9c0.7,0.2,1.5,0.2,2.2,0l32.3-8.8"/>
	<path id="Path_11995" class="st0" d="M95.2,125.7l0,16.5c0,2.7,2.2,4.9,4.9,4.9h26.4c2.7,0,5-2.2,5-4.9v-11.6"/>
</g>
</svg>
