<?xml version="1.0" encoding="utf-8"?>
<!-- Generator: Adobe Illustrator 25.4.1, SVG Export Plug-In . SVG Version: 6.00 Build 0)  -->
<svg version="1.1" id="Layer_1" xmlns="http://www.w3.org/2000/svg" xmlns:xlink="http://www.w3.org/1999/xlink" x="0px" y="0px"
	 viewBox="0 0 65 65" style="enable-background:new 0 0 65 65;" xml:space="preserve">
<style type="text/css">
	.st0{fill:none;stroke:#2E1A47;stroke-width:2;stroke-linejoin:round;}
	.st1{fill:none;stroke:#2E1A47;stroke-width:2;stroke-linecap:round;stroke-linejoin:round;}
	.st2{fill:none;stroke:#2E1A47;stroke-width:2;stroke-linecap:round;stroke-miterlimit:10;}
</style>
<g>
	<path class="st0" d="M60,40.2v6.7c0,4.8-3.9,8.6-8.6,8.6H13.6c-4.8,0-8.6-3.9-8.6-8.6V27.5c0-4.8,3.9-8.6,8.6-8.6h21.9"/>
	<line class="st1" x1="13.4" y1="41.5" x2="19.9" y2="41.5"/>
	<line class="st1" x1="13.4" y1="46.9" x2="35.2" y2="46.9"/>
	<line class="st1" x1="23.2" y1="41.5" x2="29.7" y2="41.5"/>
	<line class="st1" x1="33" y1="41.5" x2="39.5" y2="41.5"/>
	<line class="st1" x1="42.8" y1="41.5" x2="49.3" y2="41.5"/>
	<path class="st2" d="M12.5,30h3.3c0.6,0,1.1,0.5,1.1,1.1v3.3c0,0.6-0.5,1.1-1.1,1.1h-3.3c-0.6,0-1.1-0.5-1.1-1.1v-3.3
		C11.4,30.5,11.9,30,12.5,30z"/>
	<path class="st0" d="M46.4,15.5h9.9c2.1,0,3.7,1.7,3.7,3.7v9.9c0,2.1-1.7,3.7-3.7,3.7h-9.9c-2.1,0-3.7-1.7-3.7-3.7v-9.9
		C42.7,17.2,44.3,15.5,46.4,15.5z"/>
	<path class="st0" d="M50.1,6.9h2.5c2.7,0,5,2.2,5,5v3.7H45.1v-3.7C45.1,9.1,47.4,6.9,50.1,6.9z"/>
	<line class="st1" x1="51.3" y1="22.9" x2="51.3" y2="25.9"/>
</g>
</svg>
