<?xml version="1.0" encoding="utf-8"?>
<!-- Generator: Adobe Illustrator 25.3.1, SVG Export Plug-In . SVG Version: 6.00 Build 0)  -->
<svg version="1.1" id="Layer_1" xmlns="http://www.w3.org/2000/svg" xmlns:xlink="http://www.w3.org/1999/xlink" x="0px" y="0px"
	 viewBox="0 0 65 65" style="enable-background:new 0 0 65 65;" xml:space="preserve">
<style type="text/css">
	.st0{fill:none;stroke:#2E1A47;stroke-width:2;stroke-linecap:round;stroke-linejoin:round;}
	.st1{fill:#2E1A47;stroke:#2E1A47;stroke-width:0.5;stroke-miterlimit:10;}
	.st2{fill:none;stroke:#2E1A47;stroke-width:2;stroke-linecap:round;stroke-miterlimit:10;}
</style>
<g id="Group_16948" transform="translate(-86.294 -89.488)">
	<g id="Group_15774">
		<path id="Path_9713" class="st0" d="M91.7,116.9v30.2h40.7v-36.5"/>
		<path id="Path_9714" class="st0" d="M91.3,111.3l21.2-14.2l19.9,13.3"/>
	</g>
	<path id="Union_277" class="st1" d="M111.9,136.6v-2.2H109c-2,0-3.7-1.7-3.6-3.7c0-0.4,0.3-0.7,0.7-0.7l0,0c0.4,0,0.7,0.3,0.7,0.7
		c0,0,0,0,0,0l0,0c0,1.2,1,2.2,2.2,2.2h2.9v-6.7H109c-2,0-3.7-1.7-3.6-3.7v-2.2c0-2,1.6-3.7,3.6-3.7h2.9v-2.2c0-0.4,0.3-0.7,0.7-0.8
		c0.4,0,0.7,0.3,0.8,0.7c0,0,0,0,0,0.1v2.2h2.9c2,0,3.7,1.7,3.6,3.7c0,0.4-0.3,0.7-0.7,0.8c-0.4,0-0.7-0.3-0.8-0.7v-0.1
		c0-1.2-1-2.2-2.2-2.2h-2.9v6.7h2.9c2,0,3.7,1.7,3.6,3.7v2.2c0,2-1.6,3.7-3.6,3.7h-2.9v2.2c0,0.4-0.3,0.7-0.7,0.8
		C112.3,137.4,111.9,137.1,111.9,136.6C111.9,136.6,111.9,136.6,111.9,136.6L111.9,136.6z M116.3,132.9c1.2,0,2.2-1,2.2-2.2v-2.2
		c0-1.2-1-2.2-2.2-2.2h-2.9v6.7H116.3z M106.8,120.2v2.2c0,1.2,1,2.2,2.2,2.2h2.9V118H109C107.8,118,106.8,119,106.8,120.2z"/>
	<path id="Path_11575" class="st2" d="M125.4,125.9h21.2"/>
	<path id="Path_11576" class="st0" d="M140.2,132.8l6.6-7l-6.6-7"/>
</g>
</svg>
