<?xml version="1.0" encoding="utf-8"?>
<!-- Generator: Adobe Illustrator 25.3.1, SVG Export Plug-In . SVG Version: 6.00 Build 0)  -->
<svg version="1.1" id="Layer_1" xmlns="http://www.w3.org/2000/svg" xmlns:xlink="http://www.w3.org/1999/xlink" x="0px" y="0px"
	 viewBox="0 0 105 105" style="enable-background:new 0 0 105 105;" xml:space="preserve">
<style type="text/css">
	.st0{fill:none;stroke:#2E1A47;stroke-width:2;}
	.st1{fill:#2E1A47;stroke:#2E1A47;stroke-width:2;}
	.st2{fill:none;stroke:#2E1A47;stroke-width:2;stroke-linecap:round;}
</style>
<g id="Group_17194" transform="translate(21.868 32.535)">
	<path id="Path_12092" class="st0" d="M38.8,6.3"/>
	<path id="Path_12093" class="st1" d="M38.8,7.2"/>
	<g id="Group_17195">
		<g id="Group_17194-2">
			<path id="Path_12092-2" class="st2" d="M68.9-28.2l-31,31.4L11.7-23L-9.8-2"/>
			<path id="Path_12093-2" class="st2" d="M48.4-29h20.7v20.1"/>
		</g>
		<g id="dimension">
			<g id="Group_17194-3">
				<path id="Path_12094" class="st0" d="M42.5,51.2V33c0-1-0.2-1.1-2.1-1.1H18.6c-2,0-2.2,0.1-2.2,1.1v36.3c0,1,0.2,1.1,2.4,1.1
					h21.3c2.2,0,2.4-0.1,2.4-1.1L42.5,51.2L42.5,51.2z"/>
				<path id="Path_12096" class="st2" d="M69,58.7V12.9c0-1.6-0.2-1.8-2.4-1.8H45.3c-2.2,0-2.4,0.2-2.4,1.8v55.9
					c0,1.5,0.2,1.7,2.2,1.7h23.5"/>
				<path id="Path_12097" class="st0" d="M16.4,45.1v23.1c0,2-0.2,2.2-2.2,2.2H-5.2c-2.1,0.4-4.1-1-4.5-3.1l0,0l0,0
					c-0.1-0.4-0.1-0.8,0-1.2V21.8c0-1.8,0.2-2,2.1-2h21.9c1.8,0,2,0.2,2,1.9C16.4,29.5,16.4,37.3,16.4,45.1z"/>
			</g>
		</g>
	</g>
</g>
</svg>
