<svg xmlns="http://www.w3.org/2000/svg" width="25" height="25" viewBox="0 0 25 25">
  <g id="Info-Med" transform="translate(0.5 0.5)">
    <rect id="_24x24px_Null_Bounding_Box" data-name="24x24px Null Bounding Box" width="24" height="24" fill="none"/>
    <path id="Union_13" data-name="Union 13" d="M773-1887a12.013,12.013,0,0,1,12-12,12.014,12.014,0,0,1,12,12,12.014,12.014,0,0,1-12,12A12.013,12.013,0,0,1,773-1887Zm2,0a10.011,10.011,0,0,0,10,10,10.011,10.011,0,0,0,10-10,10.011,10.011,0,0,0-10-10A10.012,10.012,0,0,0,775-1887Zm9,5v-6a1,1,0,0,1,1-1,1,1,0,0,1,1,1v6a1,1,0,0,1-1,1A1,1,0,0,1,784-1882Zm0-10a1,1,0,0,1,1-1,1,1,0,0,1,1,1,1,1,0,0,1-1,1A1,1,0,0,1,784-1892Z" transform="translate(-773 1899)" fill="#2e1a47" stroke="rgba(0,0,0,0)" stroke-miterlimit="10" stroke-width="1"/>
  </g>
</svg>
