<svg class="loan-icon-65" xmlns="http://www.w3.org/2000/svg" xmlns:xlink="http://www.w3.org/1999/xlink" width="65" height="65" x="0px" y="0px"
	 viewBox="0 0 65 65" style="enable-background:new 0 0 65 65;" xml:space="preserve">
<style type="text/css">
	.st0{fill:none;stroke:#2E1A47;stroke-width:2;stroke-linecap:round;stroke-linejoin:round;stroke-miterlimit:10;}
	.st1{fill:#2E1A47;stroke:#2E1A47;stroke-miterlimit:10;}
</style>
<g id="Path_12301">
	<path class="st0" d="M30.6,6.9L15.7,6.8c-1.1,0-1.6,0.8-1.1,1.8l4.6,9.6c0.5,1,0,2.2-1,2.6l-5,2.1c-1,0.4-2,1.7-2.1,2.8L6.7,56.8
		c-0.2,1.1,0.6,2,1.7,2h45.4c1.1,0,1.8-0.9,1.6-2l-6.1-30.2c-0.2-1.1-1.2-2.4-2.2-2.8l-6.1-3c-1-0.5-1.4-1.7-1-2.7l4.1-9.4
		c0.4-1-0.1-1.8-1.2-1.9L39,6.8"/>
</g>
<path id="Path_12068_00000062159392579323646300000014972908539470829198_" class="st1" d="M30.6,27c0-0.8,0-1.4,0-2
	c0-0.5,0.2-0.9,0.8-0.9S32,24.5,32,25c0,0.6,0,1.4,0,2.2c0.5,0.1,1.2,0.2,1.7,0.3c2.2,0.3,3.9,1.9,4.3,4c0.1,0.2,0.1,0.4,0.1,0.8
	c-0.1,0.2-0.3,0.5-0.4,0.6s-0.4-0.2-0.6-0.4c-0.1-0.1-0.1-0.3-0.1-0.4c-0.2-1.4-1.2-2.5-2.5-2.9c-1.9-0.8-4.2-0.9-6.3-0.3
	c-1.6,0.4-2.7,1.8-2.8,3.5c-0.2,1.5,0.6,3,2.2,3.6c1.6,0.5,3.1,0.9,4.9,1.2c0.9,0.2,1.7,0.4,2.6,0.6c1.9,0.6,3.5,1.8,3.7,4
	c0.4,2.3-0.6,4.5-2.6,5.7c-1.3,0.6-2.6,1.3-4,1.8c0,0.6,0,1.5,0,2.3c0,0.4-0.1,0.9-0.6,0.9s-0.8-0.3-0.8-0.9c0-0.6,0-1.3,0-1.9
	c0-0.5-0.1-0.6-0.6-0.8c-2.2-0.1-4.2-1.2-5.5-2.9c-0.8-1-1.1-2.2-1-3.5c0-0.3-0.3-1.4,0.8-1.4s0.4,1.2,0.4,1.5
	c-0.1,2,1.2,3.9,3.1,4.5c2.4,1.1,5.2,0.9,7.3-0.5c1.6-1,2.4-2.8,2-4.6c-0.1-1.2-0.9-2.2-1.9-2.5c-1.4-0.4-2.7-0.9-4.1-1.2
	c-1.3-0.2-2.6-0.5-3.8-1c-2.2-0.8-3.6-2.9-3.3-5.2c0.3-2.4,2.2-4.3,4.5-4.6C29.1,27.1,29.8,27.1,30.6,27z"/>
</svg>
