<?xml version="1.0" encoding="utf-8"?>
<!-- Generator: Adobe Illustrator 25.3.1, SVG Export Plug-In . SVG Version: 6.00 Build 0)  -->
<svg version="1.1" id="Layer_1" xmlns="http://www.w3.org/2000/svg" xmlns:xlink="http://www.w3.org/1999/xlink" x="0px" y="0px"
	 viewBox="0 0 65 65" style="enable-background:new 0 0 65 65;" xml:space="preserve">
<style type="text/css">
	.st0{opacity:0.998;}
	.st1{fill:none;stroke:#2E1A47;stroke-width:2;stroke-linecap:round;stroke-miterlimit:10;}
	.st2{fill:#2E1A47;stroke:#2E1A47;}
	.st3{fill:none;stroke:#2E1A47;stroke-width:2;stroke-linecap:round;stroke-linejoin:round;}
	.st4{fill:none;stroke:#2E1A47;stroke-width:2;stroke-linecap:round;}
</style>
<g id="System_error_-_large" transform="translate(-7.262 -4.319)">
	<g id="Group_16765" transform="translate(8.262 5.319)" class="st0">
		<path id="Rectangle_1" class="st1" d="M38.3,55.8c-0.7,1.3-2,2.1-3.5,2H15c-2.4,0-4.3-2-4.3-4.3V12.2c0-2.4,1.9-4.3,4.3-4.3h19.8
			c2.4,0,4.3,2,4.3,4.3v13.4"/>
		<path id="Path_36" class="st1" d="M25.2,49.3"/>
		<path id="Path_37" class="st1" d="M25.2,49.3"/>
		<path id="Rectangle_3" class="st1" d="M20.2,49.4h9.9v1.4c0,0.8-0.6,1.4-1.4,1.4h-7.1c-0.8,0-1.4-0.6-1.4-1.4V49.4z"/>
		<path id="Rectangle_3714" class="st1" d="M20.2,7.9h9.9v1.4c0,0.8-0.6,1.4-1.4,1.4h-7.1c-0.8,0-1.4-0.6-1.4-1.4V7.9z"/>
		<path id="tru_lg_hrz_rgb_pos" class="st2" d="M48.5,43.9h-7.5c-0.4,0-0.8-0.3-0.8-0.7l0,0c0,0,0-0.1,0-0.1v-7.7
			c0-0.4,0.3-0.8,0.7-0.9c0,0,0.1,0,0.1,0h7.5c0.4,0,0.8,0.3,0.8,0.7l0,0c0,0,0,0.1,0,0.1V43c0,0.4-0.3,0.8-0.7,0.9c0,0,0,0,0,0l0,0
			C48.6,43.9,48.5,43.9,48.5,43.9z M40.9,39.6v3.5h7.7v-3.5h-2v1.7h-0.9v-4.4h0.9v1.7h2v-3.5h-7.7v3.5h1.9v-1.7h0.9v4.4h-0.9v-1.7
			H40.9z"/>
		<path id="Path_10996" class="st3" d="M50.6,48.7l2.5-3.9l0,0c3.3-4.6,2.3-11.1-2.3-14.4s-11.1-2.3-14.4,2.3
			c-2.6,3.6-2.6,8.5,0,12.1l0,0l8.3,13.1l3.9-6.1"/>
		<line id="Line_2249" class="st4" x1="11.2" y1="49.3" x2="34.4" y2="49.3"/>
	</g>
</g>
</svg>
