<?xml version="1.0" encoding="utf-8"?>
<!-- Generator: Adobe Illustrator 25.3.1, SVG Export Plug-In . SVG Version: 6.00 Build 0)  -->
<svg version="1.1" id="Layer_1" xmlns="http://www.w3.org/2000/svg" xmlns:xlink="http://www.w3.org/1999/xlink" x="0px" y="0px"
	 viewBox="0 0 65 65" style="enable-background:new 0 0 65 65;" xml:space="preserve">
<style type="text/css">
	.st0{fill:none;stroke:#2E1A47;stroke-width:2;stroke-linecap:round;stroke-miterlimit:10;}
</style>
<g id="Group_14632" transform="translate(33.382 31.737)">
	<line id="Line_2210" class="st0" x1="23.6" y1="9.9" x2="23.6" y2="20.8"/>
	<path id="Path_11419" class="st0" d="M-26.5,31.3l11.1-14L1,30.3L23.2,9.8L11.6,7.3"/>
	<path id="Path_11420" class="st0" d="M22.1-2.5c0-14.2-11.5-25.7-25.7-25.7S-29.3-16.7-29.3-2.5c0,5.9,2,11.6,5.7,16.2"/>
	<path id="Path_11421" class="st0" d="M2-7.8c-0.4-2.5-2.2-3.9-5.6-4s-5.3,1.2-5.6,4c0,2.6,1.9,4.1,5.6,4.6c3.7,0.4,5.7,1.8,6,4
		c0.1,2.4-1,4.1-3.5,5.2C-4.8,7.4-10.2,5.3-9.7,1"/>
	<line id="Line_2211" class="st0" x1="-3.5" y1="-14.5" x2="-3.5" y2="-11.9"/>
	<line id="Line_2212" class="st0" x1="-3.5" y1="6.9" x2="-3.5" y2="9.4"/>
</g>
</svg>
