<svg xmlns="http://www.w3.org/2000/svg" width="102.172" height="66.643" viewBox="0 0 102.172 66.643">
  <g data-name="Group 16272" transform="translate(-0.16 -9.204)">
    <g data-name="Group 14529" transform="translate(1.16 10.204)">
      <path data-name="Path 11979" d="M62.583,52.724H1.16V10.2H75.64v26.9" transform="translate(-1.16 -10.204)" fill="none" stroke="#2e1a47" stroke-width="2"/>
      <line data-name="Line 134" y1="0.147" x2="8.385" transform="translate(10.425 10.742)" fill="none" stroke="#2e1a47" stroke-linecap="round" stroke-linejoin="round" stroke-width="2"/>
      <path data-name="Path 11980" d="M8.268,33.327a13.377,13.377,0,0,1,2.2-4.977c1.638,1.2,2.343,3.66,4.309,4.18a4.865,4.865,0,0,0,2.612-.252,26.519,26.519,0,0,0,3.7-1.448,1.8,1.8,0,0,1,1.323-.262,3.726,3.726,0,0,1,.683.435c.811.515,1.854.206,2.809.162a15.162,15.162,0,0,1,5.163,1.355c4.074,1.308,8.482.706,12.72.092" transform="translate(2.667 -0.433)" fill="none" stroke="#2e1a47" stroke-linecap="round" stroke-linejoin="round" stroke-width="2"/>
    </g>
    <path data-name="Path 11977" d="M76.62,50.955l-.874-.535a2.308,2.308,0,0,1-.992-1.774V44.856a2.3,2.3,0,0,1,.991-1.774l.874-.532a2.751,2.751,0,0,0,.946-3.7l-1.385-2.4A2.752,2.752,0,0,0,73.8,35.083a2.669,2.669,0,0,0-1.288.326l-.911.5a2.093,2.093,0,0,1-.978.222,2.167,2.167,0,0,1-1.049-.249l-3.28-1.9a2.313,2.313,0,0,1-1.042-1.746l-.026-1.04A2.734,2.734,0,0,0,62.5,28.541H59.726a2.756,2.756,0,0,0-2.734,2.671l-.028,1.028a2.3,2.3,0,0,1-1.038,1.742l-3.289,1.885a2.146,2.146,0,0,1-1.049.249,2.11,2.11,0,0,1-.977-.222l-.9-.488a2.733,2.733,0,0,0-3.682,1.026l-1.386,2.4a2.755,2.755,0,0,0,.948,3.7l.869.535a2.3,2.3,0,0,1,1,1.772v3.8a2.319,2.319,0,0,1-.991,1.788l-.872.534a2.746,2.746,0,0,0-.948,3.7l1.385,2.4a2.745,2.745,0,0,0,2.377,1.366,2.657,2.657,0,0,0,1.285-.326,4.639,4.639,0,0,1,2.114-.657,1.617,1.617,0,0,1,.84.206l3.285,1.892a2.317,2.317,0,0,1,1.038,1.748L57,62.327a2.733,2.733,0,0,0,2.726,2.646H62.5A2.757,2.757,0,0,0,65.229,62.3l.025-1.028A2.31,2.31,0,0,1,66.3,59.529l3.282-1.882a2.147,2.147,0,0,1,1.048-.252,2.083,2.083,0,0,1,.98.225l.9.488a2.733,2.733,0,0,0,3.682-1.028l1.388-2.4A2.757,2.757,0,0,0,76.62,50.955Zm-7.4-4.211a8.354,8.354,0,1,1-8.352-8.355,8.354,8.354,0,0,1,8.352,8.355Z" transform="translate(23.22 9.874)" fill="none" stroke="#2e1a47" stroke-width="2"/>
  </g>
</svg>
