<?xml version="1.0" encoding="utf-8"?>
<!-- Generator: Adobe Illustrator 25.3.1, SVG Export Plug-In . SVG Version: 6.00 Build 0)  -->
<svg version="1.1" id="Layer_1" xmlns="http://www.w3.org/2000/svg" xmlns:xlink="http://www.w3.org/1999/xlink" x="0px" y="0px"
	 viewBox="0 0 65 65" style="enable-background:new 0 0 65 65;" xml:space="preserve">
<style type="text/css">
	.st0{fill:none;stroke:#2E1A47;stroke-width:2;stroke-linecap:round;}
	.st1{fill:none;stroke:#2E1A47;stroke-width:2;stroke-linecap:round;stroke-linejoin:round;}
	.st2{fill:#2E1A47;stroke:#2E1A47;stroke-linejoin:round;}
</style>
<g id="Group_16756" transform="translate(-89.42 -89.074)">
	<g id="Group_16753">
		<g id="Group_14572">
			<path id="Path_10385" class="st0" d="M103.1,118.1v-7.9c0,0,0.4-7.6,9.2-8.4c4.4-0.1,7.6,0,7.6,0"/>
			<path id="Path_10386" class="st1" d="M115.6,96.8l4.9,4.9l-4.9,4.9"/>
		</g>
		<g id="Group_14573">
			<path id="Path_10385-2" class="st0" d="M125.8,101.8h7.9c0,0,7.6,0.4,8.4,9.2c0.1,4.4,0,7.6,0,7.6"/>
			<path id="Path_10386-2" class="st1" d="M147.1,114.3l-4.9,4.9l-4.9-4.9"/>
		</g>
		<g id="Group_14574">
			<path id="Path_10385-3" class="st0" d="M142,125.5v7.9c0,0-0.4,7.6-9.2,8.4c-4.4,0.1-7.6,0-7.6,0"/>
			<path id="Path_10386-3" class="st1" d="M129.4,146.8l-4.9-4.9l4.9-4.9"/>
		</g>
		<g id="Group_14575">
			<path id="Path_10385-4" class="st0" d="M119.3,141.8h-7.9c0,0-7.6-0.4-8.4-9.2c-0.1-4.4,0-7.6,0-7.6"/>
			<path id="Path_10386-4" class="st1" d="M98,129.3l4.9-4.9l4.9,4.9"/>
		</g>
	</g>
	<path id="Union_197" class="st2" d="M122,129.8v-1.6h-2.3c-1.5,0-2.8-1.2-2.8-2.7c0-0.3,0.3-0.5,0.6-0.5c0.3,0,0.5,0.2,0.5,0.5
		c0,0.9,0.8,1.6,1.7,1.6h2.3v-4.8h-2.3c-1.5,0-2.8-1.2-2.8-2.7v-1.6c0-1.5,1.3-2.7,2.8-2.7h2.3v-1.6c0-0.3,0.3-0.5,0.6-0.5
		c0.3,0,0.5,0.2,0.5,0.5v1.6h2.3c1.5,0,2.8,1.2,2.8,2.7c0,0.3-0.3,0.5-0.6,0.5c-0.3,0-0.5-0.2-0.5-0.5c0-0.9-0.8-1.6-1.7-1.6h-2.2
		v4.8h2.2c1.5,0,2.8,1.2,2.8,2.7v1.6c0,1.5-1.3,2.7-2.8,2.7h-2.2v1.6c0,0.3-0.3,0.5-0.6,0.5C122.2,130.3,122,130.1,122,129.8
		L122,129.8z M125.3,127.1c0.9,0,1.7-0.7,1.7-1.6v-1.6c0-0.9-0.8-1.6-1.7-1.6h-2.2v4.8L125.3,127.1z M118,118.1v1.6
		c0,0.9,0.8,1.6,1.7,1.6h2.3v-4.8h-2.3C118.8,116.4,118.1,117.2,118,118.1z"/>
</g>
</svg>
