<?xml version="1.0" encoding="utf-8"?>
<!-- Generator: Adobe Illustrator 25.3.1, SVG Export Plug-In . SVG Version: 6.00 Build 0)  -->
<svg version="1.1" id="Layer_1" xmlns="http://www.w3.org/2000/svg" xmlns:xlink="http://www.w3.org/1999/xlink" x="0px" y="0px"
	 viewBox="0 0 105 105" style="enable-background:new 0 0 105 105;" xml:space="preserve">
<style type="text/css">
	.st0{fill:#2E1A47;}
</style>
<g id="Group_17195" transform="translate(445.565 -68)">
	<g id="Group_17194" transform="translate(-438 101)">
		<path id="Path_12092" class="st0" d="M42.7-31.5c1.2,0.2,2.5,0.4,3.7,0.7c0.7,0.2,1.7,0.3,1.5,1.3c-0.2,1.1-1.1,0.8-1.8,0.7
			c-5.2-1.1-10.7-0.6-15.7,1.3C18.4-22.9,11.1-10.9,12.6,1.8c0.2,1.2,0.4,2.5,0.6,3.8h1.5c11.5,0,23,0,34.5,0c1,0,1.9-0.3,2.1-1.2
			c0.5-1.4,0.9-2.9,0.9-4.4c-0.1-3.4-4-6.7-8-4.8c-1.6,0.8-3,1.9-4.6,2.8c-1.8,1.1-3.6,2.1-5.5,2.9c-2.5,1-5.4,0.2-7.1-1.9
			c-2-2.2-2.6-4.9-1.4-7.7c0.8-1.5,1.7-3,2.6-4.4c-0.4-0.3-1.1-0.7-1.7-1.2s-1.3-1.2-0.5-2c0.8-0.8,1.4,0,1.9,0.5
			c0.6,0.6,1.1,1.2,1.6,1.8c1.1-0.7,1.9-1.2,2.8-1.7c2.5-1.5,5.6-1.4,8,0.3c0.6,0.4,1.3,0.9,0.7,1.7c-0.5,0.8-1.2,0.5-1.9,0
			c-1.8-1.2-4.1-1.3-6-0.2c-2.1,1.1-3.8,2.7-5.1,4.6c-1.5,2-1.4,4.8,0.3,6.7c1.4,1.7,3.8,2.2,6.2,1.1C36-2,37.2-2.7,38.4-3.5
			c1.6-1,3-2.1,4.7-2.9c2.9-1.5,5.9-1.3,8.4,0.8c2.6,2.2,3.4,5.1,2.7,8.4c-0.2,0.9-0.5,1.8-0.8,2.8h14.4c0.3-1.6,0.6-3.2,0.7-4.9
			c0.4-11.9-4.5-20.8-14.8-26.8c-0.8-0.4-2.1-0.7-1.5-1.9c0.7-1.2,1.7-0.3,2.4,0.1c6,3.2,10.8,8.3,13.5,14.6c0.1,0.3,0.3,0.7,0.4,1
			c0,0,0.1,0.1,0.2,0.2c1.2-0.3,2.5-0.6,3.8-0.9c4.3-1.1,7.5,0.9,8.6,5.2c1,4.2,2.1,8.3,3.1,12.5c0.1,0.7,0.6,1.3,1.2,1.5
			c2.4,0.9,4,3.3,3.9,5.9c0,17.4,0,34.8,0,52.1c0,3.7-2.9,6.4-6.8,6.4c-16,0-32,0-48.1,0c-9.6,0-19.2-0.1-28.9,0
			c-4.1,0.1-7-1.3-8.3-5.4V5.6C-0.3,5,2.2,4.5,4.6,3.9c2-0.5,4-1,5.9-1.5c0-0.4,0-0.5,0-0.7C9-12.2,17.4-25.3,30.6-29.8
			c2.4-0.8,4.9-1.1,7.3-1.7H42.7z M87.3,54.1v-1.5c0-13.2,0-26.4,0-39.6c0-3.6-1.6-5.2-5.1-5.2c-27.1,0-54.1,0-81.2,0h-1.4V54h8.8v2
			h-8.7c-0.1,0.2-0.2,0.3-0.2,0.4c0,2.3,0,4.6,0,6.8c0,3.8,1.5,5.3,5.4,5.3h77c0.4,0,0.9,0,1.3,0c2-0.1,3.8-1.5,3.9-3.4
			c0.2-3,0.1-6,0.1-9.1h-3.7v-2H87.3z M69.8,5.6h12.5C81.1,0.8,80-3.9,78.7-8.6c-0.6-1.8-2.5-2.9-4.4-2.6c-1.6,0.3-3.2,0.7-5,1.2
			C70.9-5,71,0.4,69.8,5.6z M11,5.6c0-0.7-0.1-1.2-1-0.9c-1,0.3-1.9,0.5-2.9,0.8l0,0.2H11z"/>
		<path id="Path_12093" class="st0" d="M27.4,56v-1.9h8.9V56H27.4z"/>
		<path id="Path_12094" class="st0" d="M41.4,56v-1.9h8.8V56H41.4z"/>
		<path id="Path_12095" class="st0" d="M55.6,56v-1.9h8.9V56H55.6z"/>
		<path id="Path_12096" class="st0" d="M69.6,56v-1.9h8.8V56H69.6z"/>
		<path id="Path_12097" class="st0" d="M22.3,54.1V56c-2.8,0-5.6,0.1-8.3-0.1c-0.3,0-0.5-1-0.9-1.8L22.3,54.1z"/>
	</g>
</g>
</svg>
