<svg id="Twitter-Med" xmlns="http://www.w3.org/2000/svg" width="24" height="24" viewBox="0 0 24 24">
  <rect id="_24x24px_Null_Bounding_Box" data-name="24x24px Null Bounding Box" width="24" height="24" fill="none"/>
  <g id="Group_14939" data-name="Group 14939" transform="translate(-195 -4840)">
    <path id="Path_10851" data-name="Path 10851" d="M207,4842a10,10,0,1,1-10,10A10,10,0,0,1,207,4842Zm-1.761,15.319a6.8,6.8,0,0,0,6.844-6.845c0-.1,0-.21,0-.309a4.957,4.957,0,0,0,1.2-1.248,4.877,4.877,0,0,1-1.382.38,2.4,2.4,0,0,0,1.057-1.332,4.855,4.855,0,0,1-1.526.583,2.408,2.408,0,0,0-4.161,1.647,2.2,2.2,0,0,0,.065.548,6.82,6.82,0,0,1-4.959-2.514,2.406,2.406,0,0,0,.748,3.208,2.374,2.374,0,0,1-1.087-.3v.029a2.407,2.407,0,0,0,1.93,2.36,2.381,2.381,0,0,1-.633.085,2.272,2.272,0,0,1-.454-.045,2.4,2.4,0,0,0,2.245,1.671,4.833,4.833,0,0,1-2.988,1.028,4.375,4.375,0,0,1-.574-.035A6.7,6.7,0,0,0,205.239,4857.319Z" fill="#2e1a47" fill-rule="evenodd"/>
  </g>
</svg>
